# xmcd
# Copyright (C) 1995-1998 Ti Kan
#
# Track frame offsets:
#       150
#       14978
#       32743
#       47315
#       63565
#       79618
#       96860
#       114622
#       133723
#       146690
#       161254
#       174815
#       191479
#       207083
#       220724
#       236929
#       254371
#       272647
#       291418
#       314791
#       331192
#
# Disc length: 4643 seconds
#
# Revision: 1
# Processed by: cddbd v1.5.1PL0 Copyright (c) Steve Scherf et al.
# Submitted via: CD-Transfer v1.0
#
DISCID=38122115
DTITLE=Various Artist - 
DYEAR=05
DGENRE=
TTITLE0=Smith Will   Switch
TTITLE1=Stefani Gwen   Rich Girl
TTITLE2=Phantom Planet   California
TTITLE3=Lohan Lindsay   Over
TTITLE4=K'Maro   Crazy
TTITLE5=Fler   NDW 2005
TTITLE6=Kool Savas and Azad   Alle 4 One
TTITLE7=Mario   Let Me Love You
TTITLE8=Speedy feat. Lumidee    Sientelo
TTITLE9=Papa A.P.    Gasolina
TTITLE10=Ying Yang Twins   Wait
TTITLE11=Simpson Ashlee   La La
TTITLE12=Melanie C    Next Best Superstar
TTITLE13=Simple Plan   Shut Up!
TTITLE14=Manson Marilyn   The Nobodies
TTITLE15=In Extremo    Nur ihr allein
TTITLE16=Die Toten Hosen    Frunde
TTITLE17=HIM    And Love Said No
TTITLE18=Oasis    Lyla
TTITLE19=Within Temptation    Angels
TTITLE20=The Chemical Brothers    Believe
EXTD=
EXTT0=
EXTT1=
EXTT2=
EXTT3=
EXTT4=
EXTT5=
EXTT6=
EXTT7=
EXTT8=
EXTT9=
EXTT10=
EXTT11=
EXTT12=
EXTT13=
EXTT14=
EXTT15=
EXTT16=
EXTT17=
EXTT18=
EXTT19=
EXTT20=
PLAYORDER=
